<svg xmlns="http://www.w3.org/2000/svg" width="19" height="23" fill="none" viewBox="0 0 19 23">
  <path fill="#000" stroke="#fff" stroke-width=".7" d="M4.668 18.99v3.487c0 .089.022.13.041.152l.001.001c.012.014.018.017.018.017s.006.003.022.003h2.262l.002-.002a.102.102 0 0 0 .03-.025v-.001c.02-.023.041-.061.041-.145v-3.486h7.165c.017 0 .022-.003.023-.003 0 0 .007-.004.018-.017.02-.024.041-.065.041-.153v-2.091c0-.088-.022-.13-.04-.151l-.002-.002c-.01-.013-.017-.016-.018-.017 0 0-.006-.003-.022-.003H7.085v-2.627h4.938c1.7 0 3.07-.622 4.14-1.87 1.073-1.253 1.623-2.882 1.623-4.919 0-2.035-.55-3.664-1.623-4.917L4.668 18.99Zm0 0h-.35m.35 0h-.35m0 0H1.296c-.017 0-.023-.002-.023-.002s-.006-.003-.018-.017c-.02-.024-.041-.065-.041-.153v-2.091c0-.088.022-.13.04-.152h.001c.012-.015.018-.018.019-.018 0 0 .006-.003.022-.003h3.372v-2.627H1.296c-.018 0-.023-.003-.023-.003a.06.06 0 0 1-.018-.017c-.02-.024-.041-.065-.041-.153V11.32a.23.23 0 0 1 .047-.152l-.276-.215m3.333 8.038.35-7.843m0 0H1.282l-.002.002s-.002 0-.005.003a.107.107 0 0 0-.014.016l-.276-.216m3.683.195V.523c0-.087.022-.13.041-.153m-.04 10.778L4.708.37M.985 10.953a.579.579 0 0 0-.121.367v2.434c0 .153.04.278.121.376L4.318.523v10.275H1.296a.377.377 0 0 0-.31.155ZM4.71.37a.06.06 0 0 1 .019-.017S4.734.35 4.75.35h7.273c1.7 0 3.07.623 4.14 1.87L4.71.37Zm2.726 2.76h-.35v8.018h4.667c1.048 0 1.916-.376 2.572-1.134.652-.751.963-1.722.963-2.875 0-1.154-.311-2.124-.963-2.876-.656-.757-1.524-1.133-2.572-1.133H7.435Z"/>
</svg>
