<svg xmlns="http://www.w3.org/2000/svg" width="16" height="16" fill="none" viewBox="0 0 16 16">
  <g clip-path="url(#a)">
    <path fill="#C7C7C7" d="M8 0C3.589 0 0 3.589 0 8s3.589 8 8 8 8-3.589 8-8-3.589-8-8-8Zm0 14.298A6.305 6.305 0 0 1 1.702 8 6.305 6.305 0 0 1 8 1.702 6.305 6.305 0 0 1 14.298 8 6.305 6.305 0 0 1 8 14.298Z"/>
    <path fill="#C7C7C7" d="M12.17 7.753H8.573V3.43a.659.659 0 0 0-1.317 0v4.982c0 .363.295.658.658.658h4.254a.659.659 0 0 0 0-1.317Z"/>
  </g>
  <defs>
    <clipPath id="a">
      <path fill="#fff" d="M0 0h16v16H0z"/>
    </clipPath>
  </defs>
</svg>
